<svg xmlns="http://www.w3.org/2000/svg" version="1.1" xmlns:xlink="http://www.w3.org/1999/xlink" xmlns:svgjs="http://svgjs.dev/svgjs" width="1000" height="1000" viewBox="0 0 1000 1000"><rect width="1000" height="1000" fill="#282634"></rect><g transform="matrix(0.7,0,0,0.7,149.57576911204956,359.8929349973728)"><svg viewBox="0 0 396 159" data-background-color="#282634" preserveAspectRatio="xMidYMid meet" height="401" width="1000" xmlns="http://www.w3.org/2000/svg" xmlns:xlink="http://www.w3.org/1999/xlink"><g id="tight-bounds" transform="matrix(1,0,0,1,0.2399936582746136,-0.13760835262657167)"><svg viewBox="0 0 395.52 159.27521670525314" height="159.27521670525314" width="395.52"><g><svg viewBox="0 0 736.6309412538402 296.64" height="159.27521670525314" width="395.52"><g><rect width="22.292751110399998" height="296.64" x="427.7165877830904" y="0" fill="#ff4057" opacity="1" stroke-width="0" stroke="transparent" fill-opacity="1" class="rect-o-0" data-fill-palette-color="primary" rx="1%" id="o-0" data-palette-color="#ff4057"></rect></g><g transform="matrix(1,0,0,1,0,24.72)"><svg viewBox="0 0 369.3586005830904 247.2" height="247.2" width="369.3586005830904"><g id="textblocktransform"><svg viewBox="0 0 369.3586005830904 247.2" height="247.2" width="369.3586005830904" id="textblock"><g><svg viewBox="0 0 369.3586005830904 247.2" height="247.2" width="369.3586005830904"><g transform="matrix(1,0,0,1,0,0)"><svg width="369.3586005830904" viewBox="0.9500000476837158 -34.29999923706055 51.25 34.29999923706055" height="247.2" data-palette-color="#ff4057"><path d="M10.3 0L10.3-30.3 0.95-30.3 0.95-34.3 24.05-34.3 24.05-30.3 14.7-30.3 14.7 0 10.3 0ZM28.55 0L28.55-34.3 39.2-34.3Q45.35-34.3 48.77-30.05 52.2-25.8 52.2-17.65L52.2-17.65Q52.2-8.95 48.8-4.48 45.4 0 39.2 0L39.2 0 28.55 0ZM32.95-4L38.8-4Q42.95-4 45.27-7.13 47.6-10.25 47.6-16.4L47.6-16.4 47.6-18.9Q47.6-24.5 45.27-27.4 42.95-30.3 38.8-30.3L38.8-30.3 32.95-30.3 32.95-4Z" opacity="1" transform="matrix(1,0,0,1,0,0)" fill="#ff4057" class="wordmark-text-0" data-fill-palette-color="primary" id="text-0"></path></svg></g></svg></g></svg></g></svg></g><g transform="matrix(1,0,0,1,508.3673260934904,16.38779579637972)"><svg viewBox="0 0 228.26361516034984 263.86440840724055" height="263.86440840724055" width="228.26361516034984"><g><svg xmlns="http://www.w3.org/2000/svg" xmlns:xlink="http://www.w3.org/1999/xlink" version="1.1" x="0" y="0" viewBox="17.299999237060547 12.199999809265137 65.39999389648438 75.60000610351562" style="enable-background:new 0 0 100 100;" xml:space="preserve" height="263.86440840724055" width="228.26361516034984" class="icon-icon-0" data-fill-palette-color="accent" id="icon-0"><path d="M50 12.2L17.3 31.1v37.8L50 87.8l32.7-18.9V31.1L50 12.2zM32.1 37.4L50 16l17 21.4H32.1zM67.3 39.4L50 70.4l-18.2-31H67.3zM48.1 71l-27.7-4.5 9.8-25.9L48.1 71zM68.9 40.7l10.7 25.9-27.7 4.5L68.9 40.7zM69.2 37.1L52.6 16l27 15.6L69.2 37.1zM29.8 37.1l-9.4-5.5 26.8-15.5L29.8 37.1zM28.8 38.8l-9.5 25V33.3L28.8 38.8zM49 73.2v11.7L20.9 68.7 49 73.2zM51 73.2l28.1-4.5L51 84.9V73.2zM70.3 38.8l10.5-5.6v30.9L70.3 38.8z" fill="#dcdcdc" data-fill-palette-color="accent"></path></svg></g></svg></g></svg></g><defs></defs></svg><rect width="395.52" height="159.27521670525314" fill="none" stroke="none" visibility="hidden"></rect></g></svg></g></svg>